<svg width="143" height="81" viewBox="0 0 143 81" fill="none" xmlns="http://www.w3.org/2000/svg">
<g clip-path="url(#clip0_964_17569)">
<path d="M100.926 27.6614C98.531 27.6614 96.4234 28.6556 94.8747 30.2111C89.1747 26.2503 81.4949 23.7006 72.9848 23.428L77.4075 3.41556L91.4898 6.59061C91.4898 10.0543 94.2999 12.8766 97.7487 12.8766C101.261 12.8766 104.087 9.97413 104.087 6.51043C104.087 3.04674 101.277 0.144287 97.7487 0.144287C95.2898 0.144287 93.1663 1.6356 92.1125 3.67213L76.5613 0.20843C75.7789 -3.36258e-05 75.0125 0.561214 74.805 1.34696L69.9512 23.412C61.505 23.7648 53.905 26.3144 48.189 30.2752C46.6403 28.6556 44.4529 27.6614 42.0579 27.6614C33.1806 27.6614 30.2747 39.624 38.4016 43.7131C38.1142 44.9799 37.9865 46.3269 37.9865 47.6739C37.9865 61.1118 53.0587 72 71.5638 72C90.1487 72 105.221 61.1118 105.221 47.6739C105.221 46.3269 105.077 44.9158 104.726 43.649C112.693 39.5438 109.755 27.6614 100.926 27.6614V27.6614ZM51.2865 44.563C51.2865 41.0351 54.0966 38.1968 57.6251 38.1968C61.0739 38.1968 63.884 41.0191 63.884 44.563C63.884 48.0267 61.0739 50.849 57.6251 50.849C54.1125 50.865 51.2865 48.0267 51.2865 44.563V44.563ZM85.5024 59.5563C79.6907 65.3933 63.2932 65.3933 57.4814 59.5563C56.8428 58.9951 56.8428 58.0008 57.4814 57.3594C58.0403 56.7982 59.0302 56.7982 59.589 57.3594C64.0276 61.9296 78.7487 62.0098 83.3789 57.3594C83.9377 56.7982 84.9276 56.7982 85.4865 57.3594C86.1411 58.0008 86.1411 58.9951 85.5024 59.5563ZM85.3747 50.865C81.926 50.865 79.1159 48.0427 79.1159 44.579C79.1159 41.0512 81.926 38.2129 85.3747 38.2129C88.8873 38.2129 91.7134 41.0351 91.7134 44.579C91.6974 48.0267 88.8873 50.865 85.3747 50.865Z" fill="#737373"/>
</g>
<defs>
<clipPath id="clip0_964_17569">
<rect width="76" height="72" fill="white" transform="translate(33.5)"/>
</clipPath>
</defs>
</svg>
